<svg width="42" height="46" viewBox="0 0 42 46" fill="none" xmlns="http://www.w3.org/2000/svg">
<circle cx="27" cy="23" r="15" fill="#FF513D"/>
<rect width="2" height="46" fill="#FF513D"/>
<g clip-path="url(#clip0_0_1)">
<path d="M27.0001 31.3334C22.3976 31.3334 18.6667 27.6026 18.6667 23.0001C18.6667 18.3976 22.3976 14.6667 27.0001 14.6667C31.6026 14.6667 35.3334 18.3976 35.3334 23.0001C35.3334 27.6026 31.6026 31.3334 27.0001 31.3334ZM27.0001 29.6667C28.7682 29.6667 30.4639 28.9644 31.7141 27.7141C32.9644 26.4639 33.6667 24.7682 33.6667 23.0001C33.6667 21.232 32.9644 19.5363 31.7141 18.286C30.4639 17.0358 28.7682 16.3334 27.0001 16.3334C25.232 16.3334 23.5363 17.0358 22.286 18.286C21.0358 19.5363 20.3334 21.232 20.3334 23.0001C20.3334 24.7682 21.0358 26.4639 22.286 27.7141C23.5363 28.9644 25.232 29.6667 27.0001 29.6667ZM27.0001 21.8217L29.3567 19.4642L30.5359 20.6434L28.1784 23.0001L30.5359 25.3567L29.3567 26.5359L27.0001 24.1784L24.6434 26.5359L23.4642 25.3567L25.8217 23.0001L23.4642 20.6434L24.6434 19.4642L27.0001 21.8217Z" fill="white"/>
</g>
<defs>
<clipPath id="clip0_0_1">
<rect width="20" height="20" fill="white" transform="translate(17 13)"/>
</clipPath>
</defs>
</svg>
